<?xml version="1.0" standalone="no"?>
<!DOCTYPE svg PUBLIC "-//W3C//DTD SVG 20010904//EN"
 "http://www.w3.org/TR/2001/REC-SVG-20010904/DTD/svg10.dtd">
<svg version="1.0" xmlns="http://www.w3.org/2000/svg"
 width="220.000000pt" height="220.000000pt" viewBox="0 0 220.000000 220.000000"
 preserveAspectRatio="xMidYMid meet">
<metadata>
Created by potrace 1.11, written by Peter Selinger 2001-2013
</metadata>
<g transform="translate(0.000000,220.000000) scale(0.100000,-0.100000)"
fill="#000000" stroke="none">
<path d="M967 2044 c-118 -19 -223 -74 -318 -166 -72 -70 -100 -107 -122 -162
-11 -28 -40 -70 -63 -94 -123 -123 -144 -246 -76 -441 30 -87 20 -255 -18
-291 -14 -14 -50 -71 -50 -80 0 -5 -4 -10 -10 -10 -5 0 -10 -5 -10 -10 0 -6
-10 -27 -23 -48 -48 -76 -64 -134 -67 -242 -2 -77 21 -143 76 -216 13 -17 21
-34 16 -38 -4 -4 -2 -6 3 -4 6 1 27 -14 48 -34 21 -21 44 -38 52 -38 8 0 15
-5 15 -11 0 -7 10 -9 25 -7 14 3 28 2 30 -2 9 -15 149 -4 190 15 22 10 42 19
45 20 3 1 20 8 38 14 17 7 32 17 32 21 0 5 9 11 19 15 10 3 35 21 55 40 20 18
36 31 36 28 0 -3 6 0 14 6 10 8 21 9 33 3 163 -81 232 -92 363 -57 36 9 73 17
83 18 9 1 17 4 17 8 0 4 14 12 30 19 17 7 30 16 30 21 0 5 11 11 25 15 14 3
25 10 25 15 0 14 63 50 78 44 7 -3 11 -1 8 4 -6 9 22 26 37 23 4 -1 7 2 7 6 0
5 22 21 48 35 27 14 65 47 86 72 22 25 43 42 50 38 6 -3 8 -3 4 2 -7 7 46 93
66 107 6 4 8 8 4 8 -3 0 7 27 23 60 16 33 29 61 28 63 0 1 4 15 10 30 28 72
36 252 14 304 -7 18 -12 36 -11 40 4 16 -10 52 -75 195 -33 72 -128 193 -141
181 -3 -4 -6 -1 -6 5 0 7 -7 12 -15 12 -8 0 -15 4 -15 9 0 12 -100 62 -111 55
-5 -3 -9 -1 -9 4 0 9 -16 12 -56 12 -16 0 -25 14 -43 68 -29 87 -39 108 -75
162 -57 84 -97 114 -183 134 -42 10 -98 20 -123 23 -25 2 -49 5 -55 7 -5 1
-45 -3 -88 -10z m113 -55 c25 -1 50 -6 55 -10 6 -4 13 -7 18 -7 23 -1 77 -17
110 -34 40 -20 118 -88 102 -88 -6 0 -5 -4 1 -8 17 -12 51 -75 62 -114 11 -42
6 -50 -37 -54 -14 -1 -26 -3 -26 -4 0 -1 -9 -4 -20 -6 -36 -8 -40 -10 -62 -22
-13 -7 -23 -10 -23 -7 0 3 -7 0 -15 -7 -49 -41 -53 -50 -36 -77 8 -12 18 -10
63 11 71 35 84 39 145 45 56 6 144 -11 181 -33 12 -8 22 -12 22 -9 0 12 116
-83 140 -115 96 -125 175 -382 149 -485 -5 -16 -10 -49 -13 -72 -3 -23 -14
-64 -26 -90 -11 -27 -26 -60 -33 -75 -6 -16 -16 -28 -20 -28 -5 0 -5 -4 -2
-10 3 -5 2 -10 -4 -10 -5 0 -13 -10 -17 -22 -8 -26 -129 -150 -138 -141 -3 4
-6 2 -6 -4 0 -14 -93 -62 -160 -82 -80 -25 -212 -21 -265 7 -56 30 -69 42 -84
79 -18 45 -18 46 4 49 88 13 100 22 87 66 -8 27 -27 33 -56 20 -12 -6 -39 -17
-61 -27 -22 -9 -52 -23 -67 -31 -16 -8 -28 -12 -28 -7 0 4 -4 4 -8 -2 -10 -14
-101 -75 -111 -75 -5 0 -14 -7 -21 -15 -7 -8 -16 -12 -21 -9 -5 3 -9 1 -9 -4
0 -5 -26 -22 -57 -37 -66 -31 -178 -40 -207 -16 -9 7 -16 10 -16 7 0 -4 -20 7
-45 25 -45 33 -95 89 -95 107 0 6 -6 12 -12 14 -19 7 -20 132 -3 202 15 59 58
148 84 176 8 8 20 29 28 47 7 18 18 33 25 33 6 0 8 3 5 6 -4 4 3 20 14 35 11
16 22 38 25 49 2 11 7 30 10 43 15 59 6 161 -22 246 -8 24 -13 50 -10 57 3 7
2 16 -3 18 -10 7 -2 181 9 181 1 0 3 7 5 16 5 30 52 94 106 146 48 47 158 121
184 124 6 0 18 5 28 11 10 5 39 12 65 15 26 3 49 7 51 9 2 2 7 2 10 0 3 -2 26
-5 51 -7z"/>
</g>
</svg>
